<svg xmlns="http://www.w3.org/2000/svg"><symbol id="home" viewBox="0 0 36 36"><path d="M28.6 11.6V3.1h-5.4v3L18.1 1h-.2L0 19l4 4 3.3-3.3v16.2h21.4V19.7L32 23l4-4zm-11.3 17h-4.4v-4.4h4.4zm0-5.8h-4.4v-4.4h4.4zm1.4-4.4h4.4v4.4h-4.4zm4.4 10.2h-4.4v-4.4h4.4z"/></symbol><symbol id="logo-rectangle" viewBox="0 0 126 44.2"><path d="M12.8 20.7q.8 0 .6-.9v-7a2 2 0 0 1 .6-1.2 1.7 1.7 0 0 1 1.2-.4 1.5 1.5 0 0 1 1 .3 2.3 2.3 0 0 1 .6 1.4v7.8a2 2 0 0 1-.9 1.9q.9.4.9 2.1v7.4a1.2 1.2 0 0 1-.4.8 2.3 2.3 0 0 1-1.3.3c-.5 0-1 0-1.2-.2a1.9 1.9 0 0 1-.5-1v-6.8c0-.7-.2-1.1-.6-1.1h-.6V32a1.4 1.4 0 0 1-.6 1 2.1 2.1 0 0 1-1.2.3 3.5 3.5 0 0 1-1.2-.3 1.3 1.3 0 0 1-.5-.9V12.8a2.2 2.2 0 0 1 .5-1.3 2.1 2.1 0 0 1 1.2-.4 2.2 2.2 0 0 1 1.3.4 2.2 2.2 0 0 1 .5 1.3v8zm4.8-5.6a3.9 3.9 0 0 1 .7-2.5 4.8 4.8 0 0 1 2-1.4 5.7 5.7 0 0 1 2.6 0 3.5 3.5 0 0 1 2 1.4 3.9 3.9 0 0 1 .8 2.5v16.8a1.9 1.9 0 0 1-.4 1 2.3 2.3 0 0 1-1.3.3c-.6 0-1 0-1.2-.2s-.4-.5-.5-1v-7.8h-1.2V32a1.4 1.4 0 0 1-.6 1 2.1 2.1 0 0 1-1.2.3 3.5 3.5 0 0 1-1.2-.3 1.1 1.1 0 0 1-.5-.9v-17zm4.7 5.7v-4.5c0-.6 0-1-.2-1.1l-.4-.2-.4.2a1.7 1.7 0 0 0-.2.9v4.7zm4.2-7v-2.1l.5-.7 1.2-.2c.6 0 1 0 1.2.2a1.4 1.4 0 0 1 .6.7v8.2h2.1a1.3 1.3 0 0 1 .9.5c.2.2.2.6.2 1.1s0 1-.2 1.2a1.4 1.4 0 0 1-1 .6h-2V28a2 2 0 0 0 .2.9l.4.2a.5.5 0 0 0 .4-.2c.2-.1.3-.5.3-1.1v-.7a1.3 1.3 0 0 1 .4-.9 1.6 1.6 0 0 1 1.1-.3l1.3.2c.3.2.4.5.5 1V29a3.6 3.6 0 0 1-.8 2.5 4.1 4.1 0 0 1-2 1.4 4.6 4.6 0 0 1-2.6-.1 3.9 3.9 0 0 1-2-1.3 4.1 4.1 0 0 1-.7-2.5zm8.7 7v-7.6a1.9 1.9 0 0 1 .5-1.5 1.7 1.7 0 0 1 1.2-.5 2 2 0 0 1 1.3.4c.4.2.6.8.5 1.6v18.4a1 1 0 0 1-.5 1.2 2 2 0 0 1-2.4 0 1.4 1.4 0 0 1-.6-1.2zm4.4-.1v-5.6a3.9 3.9 0 0 1 .7-2.5 4.8 4.8 0 0 1 2-1.4 5.7 5.7 0 0 1 2.6 0 3.5 3.5 0 0 1 2 1.4 3.9 3.9 0 0 1 .8 2.5V17a1.5 1.5 0 0 1-.5.9 2.3 2.3 0 0 1-1.3.3 1.6 1.6 0 0 1-1.1-.3 1.9 1.9 0 0 1-.5-.9v-.7c0-.6 0-1-.2-1.1l-.4-.2-.4.2a1.4 1.4 0 0 0-.2.9v3.5c0 .8.3 1.1.8 1.1h2.3a1.6 1.6 0 0 1 1.1.5 1.8 1.8 0 0 1 .2 1.4 3.1 3.1 0 0 1-.2 1.3 1.4 1.4 0 0 1-1.1.3h-2.3c-.5 0-.8.3-.8 1v2.7a2.2 2.2 0 0 0 .2 1 .5.5 0 0 0 .4.2l.4-.2c.2-.2.2-.5.2-1.1v-.7a1.9 1.9 0 0 1 .5-.9 1.6 1.6 0 0 1 1.1-.3 2.3 2.3 0 0 1 1.3.3c.3.1.4.4.5.9V29a4.4 4.4 0 0 1-.7 2.6 3.8 3.8 0 0 1-2 1.4 3.9 3.9 0 0 1-2.6 0 3.7 3.7 0 0 1-2.1-1.5 4.1 4.1 0 0 1-.7-2.5zm21.3 8.2a4.1 4.1 0 0 1-.7 2.5 4.7 4.7 0 0 1-4.6 1.4 4.1 4.1 0 0 1-2-1.4 3.6 3.6 0 0 1-.8-2.5V27c.1-.5.2-.8.5-1a2.4 2.4 0 0 1 1.3-.2 1.6 1.6 0 0 1 1.1.3 1 1 0 0 1 .4.9v.7a2.3 2.3 0 0 0 .2 1.1l.5.2.4-.2a2 2 0 0 0 .2-.9v-2.8c0-.7-.4-1-1.1-1h-2.2c-.9 0-1.3-.6-1.3-1.6V15a3.4 3.4 0 0 1 .7-2.5 3.8 3.8 0 0 1 2-1.4 4.3 4.3 0 0 1 2.5 0 3.8 3.8 0 0 1 2.1 1.4 3.4 3.4 0 0 1 .7 2.5v1.9a.9.9 0 0 1-.5.9 2.1 2.1 0 0 1-1.2.3l-1.2-.3a1.9 1.9 0 0 1-.4-.9v-.8a1.9 1.9 0 0 0-.2-1c-.2-.2-.3-.2-.4-.2s-.3 0-.4.2-.2.4-.2.9v3.5c0 .8.2 1.1.7 1.1h2.3c1 0 1.5.6 1.6 1.8zm5.3-8.3v-7.9a1.7 1.7 0 0 1 .6-1.2 1.7 1.7 0 0 1 1.2-.4 1.5 1.5 0 0 1 1 .3 2 2 0 0 1 .6 1.4v19a1.3 1.3 0 0 1-.4 1 2.3 2.3 0 0 1-1.3.3l-1.2-.2a1.9 1.9 0 0 1-.5-1v-7.8H65v7.8a1.4 1.4 0 0 1-.6 1 1.6 1.6 0 0 1-1.2.2l-1.2-.2a1.1 1.1 0 0 1-.5-1V12.7a1.7 1.7 0 0 1 .5-1.3 1.6 1.6 0 0 1 1.2-.4 1.7 1.7 0 0 1 1.3.4 2.2 2.2 0 0 1 .5 1.3v7.9zm4.2 0V15a3.9 3.9 0 0 1 .7-2.5 4.8 4.8 0 0 1 2-1.4 4.6 4.6 0 0 1 2.6 0 3.5 3.5 0 0 1 2 1.4 3.9 3.9 0 0 1 .8 2.5v1.9a1.5 1.5 0 0 1-.5.9 2.3 2.3 0 0 1-1.3.3 1.6 1.6 0 0 1-1.1-.3 1.9 1.9 0 0 1-.5-.9v-.8c0-.6 0-.9-.2-1a.4.4 0 0 0-.4-.2c-.2 0-.3 0-.4.2a1.4 1.4 0 0 0-.2.9v3.5c0 .8.3 1.1.8 1.1H77a2.3 2.3 0 0 1 1.1.4 2.1 2.1 0 0 1 .2 1.5 3.1 3.1 0 0 1-.2 1.3 1.4 1.4 0 0 1-1.1.3h-2.3c-.5 0-.8.3-.8 1v2.7a1.4 1.4 0 0 0 .2.9c.1.2.2.3.4.3l.4-.2c.2-.2.2-.5.2-1.1V27a1.3 1.3 0 0 1 .5-.9 1.6 1.6 0 0 1 1.1-.3l1.3.2c.3.2.4.5.5 1v1.9a4.1 4.1 0 0 1-.7 2.5 3.5 3.5 0 0 1-2 1.5 3.9 3.9 0 0 1-2.6 0 4.2 4.2 0 0 1-2.1-1.5 4.1 4.1 0 0 1-.7-2.5zm8.8 0V15a3.4 3.4 0 0 1 .7-2.5 3.8 3.8 0 0 1 2-1.4 4.3 4.3 0 0 1 2.5 0 3.8 3.8 0 0 1 2.1 1.4 3.4 3.4 0 0 1 .7 2.5v1.9a.9.9 0 0 1-.5.9 2.1 2.1 0 0 1-1.2.3 1.6 1.6 0 0 1-1.1-.3 1.3 1.3 0 0 1-.5-.9v-.8a1.6 1.6 0 0 0-.2-1l-.4-.2a.6.6 0 0 0-.5.2c-.1.1-.1.4-.1.9v3.5c0 .8.2 1.1.7 1.1h2.3a2.4 2.4 0 0 1 1.2.4 2.8 2.8 0 0 1 .2 1.5 1.9 1.9 0 0 1-.3 1.3c-.1.2-.5.3-1.1.3h-2.2c-.6 0-.8.3-.8 1v2.7c0 .5 0 .8.1.9s.3.3.5.3l.4-.2a2.3 2.3 0 0 0 .2-1.1V27c.1-.5.2-.8.4-.9a1.7 1.7 0 0 1 1.2-.3l1.3.2a1.3 1.3 0 0 1 .4 1v1.9a4.1 4.1 0 0 1-.6 2.5 3.8 3.8 0 0 1-2 1.5 4.2 4.2 0 0 1-2.7 0 4.7 4.7 0 0 1-2.1-1.5 4.1 4.1 0 0 1-.6-2.5zm8.7-4.3v-4.2c0-.8 0-1.2.3-1.3h2a13.9 13.9 0 0 1 3 .3 4.1 4.1 0 0 1 2 1.4A3.4 3.4 0 0 1 96 15v14.1a3.6 3.6 0 0 1-.8 2.5 3.4 3.4 0 0 1-2 1.3 8.6 8.6 0 0 1-2.9.2h-2c-.1 0-.3-.3-.4-.9zm4.7 3.8v-4a2.2 2.2 0 0 0-.2-1l-.4-.2-.4.2a2.2 2.2 0 0 0-.2 1v11.7a1.9 1.9 0 0 0 .2 1 .5.5 0 0 0 .4.3c.2 0 .3-.1.4-.3s.2-.4.2-1zm8.8.5v-7.9a1.7 1.7 0 0 1 .5-1.3 1.7 1.7 0 0 1 1.3-.4 1.6 1.6 0 0 1 1.2.4 2.2 2.2 0 0 1 .5 1.3v16.2a3.7 3.7 0 0 1-.7 2.6 4.8 4.8 0 0 1-2 1.2 4.3 4.3 0 0 1-2.5.1 3.9 3.9 0 0 1-2.1-1.4 4.1 4.1 0 0 1-.8-2.5V27a1.4 1.4 0 0 1 .6-1c.2-.2.7-.2 1.2-.2a1.7 1.7 0 0 1 1.2.3c.2.1.3.4.4.9v.9a2 2 0 0 0 .2.9l.4.2c.2 0 .3-.1.4-.3a1.4 1.4 0 0 0 .2-.9v-4a3.3 3.3 0 0 1-1.7.2 3.3 3.3 0 0 1-1.4-.4 3.6 3.6 0 0 1-1.1-1 3.7 3.7 0 0 1-.4-2.1v-7.7a2 2 0 0 1 .6-1.4 1.5 1.5 0 0 1 1-.3 1.7 1.7 0 0 1 1.2.4 1.4 1.4 0 0 1 .5 1.2v6.9a1.4 1.4 0 0 0 .3 1.1.8.8 0 0 0 1-.1z"/><path d="M122.7 3.6v37H3.3v-37l110.9.2v6.4h-2.8V6.6L6.1 6.3v31.5h113.8V3.6h2.8z"/><path d="M117.8 21.4l-2.2 5.2a1.2 1.2 0 0 1-1 .5h-3.7a1.6 1.6 0 0 1-1.1-.5l-2-5.2a1.1 1.1 0 0 1-.1-1.3l4.1-8.8a.3.3 0 0 1 .5.1v6.9a1.3 1.3 0 0 1-.4.9 1.1 1.1 0 0 0-.3.8 1.1 1.1 0 0 0 1.1 1.1 1.1 1.1 0 0 0 .9-1.9 1.3 1.3 0 0 1-.4-.9v-6.9c0-.2.4-.3.5-.1l4.2 8.8a1.2 1.2 0 0 1-.1 1.3z"/><rect width="5" height="5.02" x="110.2" y="28.1" rx="1"/></symbol><symbol id="arrow-next" viewBox="0 0 36 36"><path d="M28.2 18l.1.1L10.4 36l-4-4 14-14-14-14 4-4 17.9 17.9-.1.1z"/></symbol><symbol id="arrow-previous" viewBox="0 0 36 36"><path d="M14.3 18l14 14-4 4L6.4 18.1v-.2L24.3 0l4 4-14 14z"/></symbol><symbol id="logo-square" viewBox="0 0 85.8 82.8"><path d="M76.5 25.2l-2.9 6.7a1.5 1.5 0 0 1-1.3.6h-4.8a1.6 1.6 0 0 1-1.3-.6l-2.7-6.7a1.7 1.7 0 0 1-.1-1.8l5.3-11.3c.1-.3.6-.1.6.2v8.9a2.1 2.1 0 0 1-.5 1.2 1.5 1.5 0 0 0 1.1 2.4 1.5 1.5 0 0 0 1.5-1.5 1.5 1.5 0 0 0-.4-.9 1.8 1.8 0 0 1-.5-1.2v-8.9a.4.4 0 0 1 .7-.1l5.3 11.2a1.7 1.7 0 0 1 0 1.8zm-62.2-.9q.9 0 .9-1.2v-9a2.4 2.4 0 0 1 .7-1.6 2 2 0 0 1 1.5-.5 3.4 3.4 0 0 1 1.4.5 2.5 2.5 0 0 1 .7 1.7v10a2.9 2.9 0 0 1-1.2 2.5q1.2.6 1.2 2.7v9.5A1.6 1.6 0 0 1 19 40a2.5 2.5 0 0 1-1.6.4 3 3 0 0 1-1.6-.3 1.2 1.2 0 0 1-.6-1.2v-8.8c-.1-1-.3-1.4-.9-1.4h-.7v10.2a2.3 2.3 0 0 1-.8 1.2 2.5 2.5 0 0 1-1.6.4l-1.5-.4a1.2 1.2 0 0 1-.6-1.2V14.1a2 2 0 0 1 .6-1.6 2.1 2.1 0 0 1 1.6-.6 2.5 2.5 0 0 1 1.6.5 2.9 2.9 0 0 1 .7 1.7v10.2zm6.2-7.3a5.5 5.5 0 0 1 .9-3.2 5.2 5.2 0 0 1 2.6-1.7 5.3 5.3 0 0 1 3.3-.1 5 5 0 0 1 2.7 1.8 4.7 4.7 0 0 1 .9 3.2v21.8a1.5 1.5 0 0 1-.5 1.2 2.2 2.2 0 0 1-1.6.4 3 3 0 0 1-1.6-.3 1.7 1.7 0 0 1-.6-1.2V28.8H25v10.1a1.5 1.5 0 0 1-.8 1.2 2.4 2.4 0 0 1-1.5.4l-1.6-.4a1.7 1.7 0 0 1-.6-1.2V17zm6.1 7.3v-5.8a2.7 2.7 0 0 0-.2-1.3.9.9 0 0 0-.6-.3.5.5 0 0 0-.5.3 1.7 1.7 0 0 0-.3 1.2v5.9zm5.4-9v-2.7a1.9 1.9 0 0 1 .7-.8 2.2 2.2 0 0 1 1.4-.3 3.2 3.2 0 0 1 1.6.2 2.4 2.4 0 0 1 .8.9v10.6h2.7a2.2 2.2 0 0 1 1.2.6 2.8 2.8 0 0 1 .3 1.5 3.5 3.5 0 0 1-.3 1.6 1.8 1.8 0 0 1-1.3.7h-2.6v6a1.7 1.7 0 0 0 .3 1.2.5.5 0 0 0 .5.3.9.9 0 0 0 .6-.3 3 3 0 0 0 .2-1.4v-.9a2 2 0 0 1 .6-1.2 2.2 2.2 0 0 1 1.4-.3 2.2 2.2 0 0 1 1.7.3 1.4 1.4 0 0 1 .6 1.2V35a4.8 4.8 0 0 1-.9 3.2 5.6 5.6 0 0 1-2.7 1.8 5.3 5.3 0 0 1-3.3-.1 4.8 4.8 0 0 1-2.6-1.8A5 5 0 0 1 32 35zm11.3 9v-9.7a2.8 2.8 0 0 1 .6-2 2 2 0 0 1 1.5-.6 2.5 2.5 0 0 1 1.7.5c.5.3.7 1 .7 2.1v23.7a1.7 1.7 0 0 1-.7 1.6 2.8 2.8 0 0 1-1.6.5 3 3 0 0 1-1.6-.5 2.1 2.1 0 0 1-.6-1.6zm5.6 0V17a5.5 5.5 0 0 1 .9-3.2 4.8 4.8 0 0 1 2.6-1.7 5.3 5.3 0 0 1 3.3-.1 5.1 5.1 0 0 1 2.6 1.8 4.7 4.7 0 0 1 1 3.2v2.5a1.5 1.5 0 0 1-.7 1.2 3 3 0 0 1-1.5.4 2.7 2.7 0 0 1-1.5-.4 2.3 2.3 0 0 1-.6-1.2v-1a2.2 2.2 0 0 0-.3-1.4l-.5-.2a.9.9 0 0 0-.6.3 2 2 0 0 0-.2 1.1v4.6c0 .9.3 1.4 1 1.4h2.9a2.1 2.1 0 0 1 1.5.6 2.2 2.2 0 0 1 .3 1.8 2.9 2.9 0 0 1-.3 1.7 3 3 0 0 1-1.5.4h-2.8c-.7 0-1.1.4-1.1 1.2v3.6a2.9 2.9 0 0 0 .2 1.2.9.9 0 0 0 .6.3c.2 0 .3-.1.5-.3s.3-.6.3-1.4v-.9a2.3 2.3 0 0 1 .5-1.2 3 3 0 0 1 1.6-.3 3.2 3.2 0 0 1 1.6.3 1.7 1.7 0 0 1 .6 1.2V35a5.8 5.8 0 0 1-.8 3.3 4.9 4.9 0 0 1-2.6 1.8 5.3 5.3 0 0 1-3.5 0 5.1 5.1 0 0 1-2.6-1.9 4.8 4.8 0 0 1-.9-3.2zM19.5 66.5a4.4 4.4 0 0 1-.9 3.2 4.8 4.8 0 0 1-2.6 1.7 5 5 0 0 1-3.2.1 5 5 0 0 1-2.7-1.8 4.7 4.7 0 0 1-1-3.2V64a1.5 1.5 0 0 1 .7-1.2 3.5 3.5 0 0 1 1.6-.3 2.1 2.1 0 0 1 1.5.4 1.6 1.6 0 0 1 .5 1.1v1c0 .7.1 1.2.3 1.3a.9.9 0 0 0 .6.3l.5-.3a2.9 2.9 0 0 0 .2-1.2v-3.6c0-.8-.5-1.2-1.4-1.2h-2.8c-1.1 0-1.7-.7-1.7-2.1v-9.7a4.4 4.4 0 0 1 .9-3.2 4.8 4.8 0 0 1 2.6-1.7 5.3 5.3 0 0 1 3.3-.1 5.1 5.1 0 0 1 2.6 1.8 4.7 4.7 0 0 1 1 3.2V51a1.5 1.5 0 0 1-.7 1.2c-.3.3-.9.3-1.6.3a2.1 2.1 0 0 1-1.5-.4 1.9 1.9 0 0 1-.5-1.1v-1c0-.7-.1-1.2-.3-1.3s-.3-.3-.5-.3a.9.9 0 0 0-.6.3 2.9 2.9 0 0 0-.2 1.2v4.5c0 .9.3 1.4 1 1.4h2.9c1.3 0 2 .8 2 2.3zm7-10.7V45.6a2.6 2.6 0 0 1 .7-1.6 2.5 2.5 0 0 1 1.5-.5 3.4 3.4 0 0 1 1.4.5 2.5 2.5 0 0 1 .7 1.7v24.6c-.1.6-.2 1-.6 1.2a2.2 2.2 0 0 1-1.6.4 3.5 3.5 0 0 1-1.6-.3 1.4 1.4 0 0 1-.5-1.2V60.3h-1.6v10.1a1.9 1.9 0 0 1-.9 1.2 2.2 2.2 0 0 1-1.5.4 3 3 0 0 1-1.5-.4 1.2 1.2 0 0 1-.6-1.2V45.6a2.1 2.1 0 0 1 2.2-2.2 2.1 2.1 0 0 1 1.6.6 3 3 0 0 1 .7 1.6v10.2zm5.3 0v-7.3a5.5 5.5 0 0 1 .9-3.2 4.8 4.8 0 0 1 2.6-1.7 5.3 5.3 0 0 1 3.3-.1 4.4 4.4 0 0 1 2.6 1.8 4.3 4.3 0 0 1 1 3.2V51a1.7 1.7 0 0 1-.6 1.2 2.5 2.5 0 0 1-1.6.4 2.7 2.7 0 0 1-1.5-.4 1.7 1.7 0 0 1-.6-1.2v-1a2.7 2.7 0 0 0-.2-1.3.9.9 0 0 0-.6-.3.5.5 0 0 0-.5.3 1.4 1.4 0 0 0-.3 1.1v4.6c0 .9.4 1.4 1 1.4h3a2 2 0 0 1 1.4.6 2.6 2.6 0 0 1 .4 1.8 3.7 3.7 0 0 1-.4 1.7 2.1 2.1 0 0 1-1.4.4h-2.9c-.7 0-1.1.4-1.1 1.2v3.6a1.7 1.7 0 0 0 .3 1.2.5.5 0 0 0 .5.3.9.9 0 0 0 .6-.3 3.1 3.1 0 0 0 .2-1.3v-1a2.3 2.3 0 0 1 .6-1.2 2.4 2.4 0 0 1 1.5-.3 3.2 3.2 0 0 1 1.6.3 1.7 1.7 0 0 1 .6 1.2v2.5a5.1 5.1 0 0 1-.8 3.3 4.7 4.7 0 0 1-2.6 1.9 5.6 5.6 0 0 1-3.4-.1 4.9 4.9 0 0 1-2.7-1.9 5.3 5.3 0 0 1-.9-3.2zm11.3 0v-7.3a5.5 5.5 0 0 1 .9-3.2 4.8 4.8 0 0 1 2.6-1.7 5.3 5.3 0 0 1 3.3-.1 4.4 4.4 0 0 1 2.6 1.8 4.7 4.7 0 0 1 1 3.2V51a1.7 1.7 0 0 1-.6 1.2 2.5 2.5 0 0 1-1.6.4 2.7 2.7 0 0 1-1.5-.4 1.7 1.7 0 0 1-.6-1.2v-1c0-.7-.1-1.2-.3-1.3a.6.6 0 0 0-1 0 1.4 1.4 0 0 0-.3 1.1v4.6c0 .9.4 1.4 1 1.4h3a2 2 0 0 1 1.4.6 2.6 2.6 0 0 1 .4 1.8 3.7 3.7 0 0 1-.4 1.7 2.1 2.1 0 0 1-1.4.4h-2.9c-.7 0-1.1.4-1.1 1.2v3.6a1.7 1.7 0 0 0 .3 1.2.6.6 0 0 0 1 0 1.9 1.9 0 0 0 .3-1.3v-1a2.3 2.3 0 0 1 .6-1.2 2.4 2.4 0 0 1 1.5-.3 3.2 3.2 0 0 1 1.6.3 1.7 1.7 0 0 1 .6 1.2v2.5a5.8 5.8 0 0 1-.8 3.3 4.7 4.7 0 0 1-2.6 1.9 5.6 5.6 0 0 1-3.4-.1 4.9 4.9 0 0 1-2.7-1.9 5.3 5.3 0 0 1-.9-3.2zm11.3-5.6v-5.4c-.1-1 0-1.5.3-1.6a11.1 11.1 0 0 1 2.6-.2 14.8 14.8 0 0 1 3.9.5 5.2 5.2 0 0 1 2.6 1.7 4.9 4.9 0 0 1 1 3.2v18.3a5.2 5.2 0 0 1-1 3.3 5.3 5.3 0 0 1-2.5 1.7 20.9 20.9 0 0 1-3.8.3l-2.6-.2c-.2-.1-.4-.5-.5-1.1zm6.1 4.9v-5.2a1.7 1.7 0 0 0-.3-1.2l-.5-.2a.5.5 0 0 0-.5.3 1.4 1.4 0 0 0-.3 1.1v15.2a1.9 1.9 0 0 0 .3 1.3.6.6 0 0 0 1 0c.2-.1.3-.6.3-1.3zm11.2.7V45.6a3 3 0 0 1 .7-1.6 2.1 2.1 0 0 1 1.6-.6 2 2 0 0 1 1.6.6 2.4 2.4 0 0 1 .7 1.6v20.9a5 5 0 0 1-.9 3.3 5.3 5.3 0 0 1-2.6 1.6 5.3 5.3 0 0 1-3.3.1 5 5 0 0 1-3.6-5V64a1.5 1.5 0 0 1 .7-1.2 3.2 3.2 0 0 1 1.6-.3 2.1 2.1 0 0 1 1.5.4 2.3 2.3 0 0 1 .5 1.1v1.2a1.4 1.4 0 0 0 .3 1.1.5.5 0 0 0 .5.3.9.9 0 0 0 .6-.3 2.9 2.9 0 0 0 .2-1.2v-5.2a4.2 4.2 0 0 1-2.2.3 6 6 0 0 1-1.9-.6 3.7 3.7 0 0 1-1.3-1.2 4.6 4.6 0 0 1-.5-2.7v-10c.1-.9.3-1.5.7-1.7a2.6 2.6 0 0 1 1.4-.5 2.4 2.4 0 0 1 1.4.5 2.7 2.7 0 0 1 .8 1.6v9a1.8 1.8 0 0 0 .4 1.4c.2.2.6.1 1.1-.2z"/><rect width="6.5" height="6.47" x="66.7" y="33.8" rx="1.3"/><path d="M83.7 2.2v78.4H2.1V2.2h69.6v8.1h-3.6V5.8H5.7V77h74.5V2.2h3.5z"/></symbol><symbol id="socialmedia-email" viewBox="0 0 36 36"><path d="M36 9.4v22H0v-22l14 9.3 1.2.8 2.8 1.9 2.8-1.9 1.2-.8 14-9.3z"/><path d="M36 6.5v.6l-14.6 9.8-1.1.7-2.3 1.5-2.3-1.5-1.1-.7L0 7.1v-.6h36z"/></symbol><symbol id="socialmedia-insta" viewBox="0 0 36 36"><path d="M25.9 0H10.1A10.1 10.1 0 0 0 0 10.1v15.8A10.1 10.1 0 0 0 10.1 36h15.8A10.1 10.1 0 0 0 36 25.9V10.1A10.1 10.1 0 0 0 25.9 0zm6.8 25.9a6.8 6.8 0 0 1-6.8 6.9H10.1a6.8 6.8 0 0 1-6.8-6.9V10.1a6.8 6.8 0 0 1 6.8-6.9h15.8a6.8 6.8 0 0 1 6.8 6.9z"/><path d="M29.1 9.6a2.2 2.2 0 0 1-2.1 2.2 2.2 2.2 0 0 1 0-4.3 2.2 2.2 0 0 1 2.1 2.1zm-11.4.4a8.9 8.9 0 1 0 8.9 8.9 8.9 8.9 0 0 0-8.9-8.9zm0 14.6a5.7 5.7 0 0 1-5.7-5.7 5.8 5.8 0 0 1 5.7-5.7 5.7 5.7 0 0 1 5.7 5.7 5.6 5.6 0 0 1-5.7 5.7z"/></symbol><symbol id="socialmedia-vimeo" viewBox="0 0 36 36"><path d="M35.7 10.2a22.3 22.3 0 0 1-1.8 5.7q-1.4 2.6-3 5.1a36.2 36.2 0 0 1-5.6 6.7 36 36 0 0 1-5.9 5.1c-2.3 1.6-4.4 1-6.2-.7a10.9 10.9 0 0 1-2.6-4.7L7.3 16.8c-.5-1.5-1-3.1-1.6-4.6s-.8-1.2-1.6-.8-1.8.8-2.8 1.2-.9-1-1.3-1.6a.6.6 0 0 1 .1-.4 37.8 37.8 0 0 1 5.8-5.5 14.5 14.5 0 0 1 3.8-2.2 3.6 3.6 0 0 1 3.2 0 4.3 4.3 0 0 1 1.8 2.4c.5 1.7.9 3.3 1.3 5s1 4.9 1.6 7.4a23.2 23.2 0 0 0 1.3 3.7c.4.9.9 1.1 1.7.4a15.9 15.9 0 0 0 2-2.4c.9-1.4 1.7-2.9 2.5-4.4a6.4 6.4 0 0 0 .5-2.3 2.6 2.6 0 0 0-3.8-2.5l-1.1.5a4.9 4.9 0 0 1 .7-2.5 10.3 10.3 0 0 1 5.2-5.1 8.7 8.7 0 0 1 5.3-.7 4.9 4.9 0 0 1 4 4.3 8.2 8.2 0 0 1-.2 3.5z"/></symbol><symbol id="socialmedia-linkedin" viewBox="0 0 36 36"><path d="M35.7 22.3v13.4h-7.4V22.3s.3-4.3-3.8-4.4-4.2 4.4-4.2 4.4v13.4h-7.4V12.1h7.4v2.8a8.2 8.2 0 0 1 6.6-3.4c5.8 0 6.8 2.7 7.4 3.7s1.4 3.6 1.4 7.1zM9 4.7A4.4 4.4 0 0 1 4.6 9 4.3 4.3 0 0 1 .3 4.7 4.4 4.4 0 0 1 4.6.3 4.4 4.4 0 0 1 9 4.7zm-8 7.4h7.4v23.58H1z"/></symbol></svg>