<svg enable-background="new 0 0 41.8 40.3" viewBox="0 0 41.8 40.3" xmlns="http://www.w3.org/2000/svg"><g fill="#231f20"><path d="m36.3 12.8-1.3 3c-.1.2-.4.3-.6.3h-2.2c-.2 0-.5-.1-.6-.3l-1.2-3c-.2-.2-.2-.6 0-.8l2.4-5.2c.1-.1.3-.1.3.1v4.1c0 .2-.1.4-.2.5s-.2.3-.2.4c0 .4.3.7.7.7s.7-.3.7-.7c0-.2-.1-.3-.2-.4-.1-.2-.2-.3-.2-.5v-4c0-.2.2-.2.3-.1l2.4 5.2c.1.2.1.5-.1.7z"/><path d="m8 12.4c.3 0 .4-.2.4-.6v-4.1c0-.3.2-.6.3-.7.2-.2.4-.2.7-.2.2 0 .4.1.6.2s.3.4.3.8v4.6c0 .6-.2 1-.6 1.2.4.2.6.6.6 1.2v4.3c0 .2-.1.4-.2.5s-.4.2-.7.2-.6-.1-.7-.2-.3-.3-.4-.6v-4c0-.4-.1-.6-.4-.6h-.3v4.6c-.1.3-.2.5-.4.6s-.4.2-.7.2-.5-.1-.7-.2-.3-.3-.3-.5v-1-10.4c0-.3.1-.6.3-.7.2-.2.4-.3.8-.3.3 0 .6.1.7.2s.3.4.3.8v4.7z"/><path d="m10.8 9.1c0-.6.1-1.1.4-1.5s.7-.6 1.2-.8 1-.2 1.5 0 .9.4 1.2.8.5.9.4 1.5v9.9c0 .3-.1.5-.2.6s-.4.2-.7.2-.6-.1-.7-.2-.2-.3-.3-.6v-4.6h-.7v4.6c-.1.3-.2.5-.4.6s-.4.2-.7.2-.5-.1-.7-.2-.3-.3-.3-.5v-1zm2.8 3.3v-2.6c0-.3 0-.6-.1-.6-.1-.1-.2-.2-.3-.2s-.2.1-.2.1c-.1.1-.1.3-.1.5v2.7h.7z"/><path d="m16 8.3v-1.3c.1-.2.2-.3.3-.4s.3-.1.7-.1.6 0 .7.1.3.3.4.4v4.8h1.2c.3.1.5.2.6.3s.1.4.1.7 0 .6-.1.7c-.1.2-.3.3-.6.3h-1.2v2.7c0 .3 0 .4.1.5s.2.1.2.1c.1 0 .2 0 .3-.1s.1-.3.1-.6v-.4c0-.3.1-.4.3-.5.1-.1.3-.2.7-.2.3 0 .6 0 .7.1s.3.3.3.6v1.1c0 .6-.1 1.1-.4 1.5s-.7.7-1.2.8-1 .1-1.5 0c-.5-.2-.9-.4-1.2-.8s-.5-.7-.5-1.3z"/><path d="m21.2 12.4v-4.4c0-.4.1-.8.3-.9.2-.2.4-.3.7-.3s.5.1.8.2c.2.2.3.5.3 1v10.8c0 .3-.1.6-.3.7s-.5.2-.7.2c-.3 0-.5-.1-.7-.2-.2-.2-.3-.4-.3-.7v-6.4z"/><path d="m23.7 12.4v-3.3c0-.6.1-1.1.4-1.5s.7-.6 1.2-.8 1-.2 1.5 0 .9.4 1.2.8.5.9.4 1.5v1.1c0 .3-.1.5-.3.6s-.4.2-.7.2-.5-.1-.7-.2c-.1-.1-.2-.3-.3-.6v-.4c0-.4 0-.6-.1-.6 0-.2-.1-.2-.1-.2s-.2 0-.2.1c-.1.1-.1.3-.1.5v2.1c0 .4.2.6.5.6h1.3c.3 0 .6.1.7.3.1.1.2.4.1.8s-.1.7-.2.8-.3.2-.7.2h-1.3c-.3 0-.5.2-.5.6v1.6c0 .3 0 .5.1.5.1.1.2.1.2.1s.2 0 .3-.1.1-.3.1-.6v-.4c0-.3.1-.4.3-.5s.4-.2.7-.2.6 0 .7.1c.2.1.2.3.3.6v1.1c0 .6-.1 1.1-.4 1.5s-.7.7-1.2.9-1 .2-1.6 0c-.5-.2-.9-.5-1.2-.9s-.4-.9-.4-1.5z"/><path d="m10.3 31.7c0 .6-.1 1.1-.4 1.5s-.7.6-1.2.8-1 .2-1.5 0-.9-.5-1.2-.9-.5-.9-.4-1.5v-1.1c0-.3.1-.5.3-.6s.4-.1.7-.1.6.1.7.2.2.3.3.5v.5c0 .3 0 .6.1.6.1.1.2.1.3.1s.2 0 .2-.1c.1-.1.1-.3.1-.5v-1.6c0-.4-.2-.6-.6-.6h-1.4c-.5 0-.8-.3-.8-1v-4.4c0-.6.1-1.1.4-1.5s.7-.6 1.2-.8 1-.2 1.5 0 .9.4 1.2.8.5.9.4 1.5v1.1c0 .3-.1.5-.3.6s-.4.1-.7.1-.6-.1-.7-.2-.2-.3-.3-.5v-.4c0-.3 0-.6-.1-.6-.1-.1-.2-.1-.3-.1s-.2 0-.2.1c-.1.1-.1.3-.1.5v2.1c0 .4.2.6.5.6h1.3c.6 0 .9.4.9 1.1v3.8z"/><path d="m13.5 26.8v-4.7c0-.3.2-.6.3-.7.2-.2.4-.2.7-.2s.5.1.6.2c.2.1.3.4.3.8v11.2c0 .3-.1.5-.2.6s-.4.2-.7.2-.6-.1-.7-.2-.2-.3-.3-.6v-4.6h-.7v4.6c-.1.3-.2.5-.4.6s-.4.2-.7.2-.5-.1-.7-.2-.3-.3-.3-.5v-1-10.4c0-.3.1-.6.3-.7.2-.2.4-.3.7-.3s.6.1.7.2.3.4.3.8v4.7z"/><path d="m15.9 26.8v-3.3c0-.6.1-1.1.4-1.5s.7-.6 1.2-.8 1-.2 1.5 0 .9.4 1.2.8.5.9.4 1.5v1.1c0 .3-.1.5-.3.6s-.4.2-.7.2-.5-.1-.7-.2c-.1-.1-.2-.3-.3-.6v-.4c0-.4 0-.6-.1-.6-.1-.1-.2-.1-.3-.1s-.2 0-.2.1v.5 2.1c0 .4.2.6.5.6h1.3c.3 0 .6.1.7.3.1.1.2.4.1.8s-.1.7-.2.8-.3.2-.7.2h-1.3c-.3 0-.5.2-.5.6v1.5c0 .3 0 .5.1.5.1.1.2.1.2.1s.2 0 .3-.1.1-.3.1-.6v-.4c0-.3.1-.4.3-.5s.4-.2.7-.2.6 0 .7.1c.2.1.2.3.3.6v1.1c0 .6-.1 1.1-.4 1.5s-.7.7-1.2.9-1 .2-1.6 0c-.5-.2-.9-.5-1.2-.9s-.4-.9-.4-1.5v-4.8z"/><path d="m21.1 26.8v-3.3c0-.6.1-1.1.4-1.5s.7-.6 1.2-.8 1-.2 1.5 0 .9.4 1.2.8.5.9.4 1.5v1.1c0 .3-.1.5-.3.6s-.4.2-.7.2-.5-.1-.7-.2c-.1-.1-.2-.3-.3-.6v-.4c0-.4 0-.6-.1-.6-.1-.1-.2-.1-.3-.1s-.2 0-.2.1c-.1.1-.1.3-.1.5v2.1c0 .4.2.6.5.6h1.4c.3 0 .6.1.7.3.1.1.2.4.1.8s-.1.7-.2.8-.3.2-.7.2h-1.3c-.3 0-.5.2-.5.6v1.5c0 .3 0 .5.1.5.1.1.2.1.2.1s.2 0 .3-.1.1-.3.1-.6v-.4c0-.3.1-.4.3-.5s.4-.2.7-.2.6 0 .7.1c.2.1.2.3.3.6v1.1c0 .6-.1 1.1-.4 1.5s-.7.7-1.2.9-1 .2-1.6 0c-.5-.2-.9-.5-1.2-.9s-.4-.9-.4-1.5v-4.8z"/><path d="m26.3 24.2v-2.5c0-.4 0-.7.1-.7.1-.1.5-.1 1.2-.1s1.3.1 1.8.2.9.4 1.2.8.5.9.4 1.5v8.4c0 .6-.1 1.1-.4 1.5s-.7.6-1.2.8c-.5.1-1 .2-1.7.1-.7 0-1.1-.1-1.2-.1s-.2-.2-.2-.5zm2.7 2.3v-2.4c0-.3-.1-.5-.1-.6-.1-.1-.2-.1-.2-.1s-.2 0-.2.1c-.1.1-.1.3-.1.5v7c0 .3 0 .5.1.6s.2.1.2.1.2 0 .3-.1 0-.2 0-.6z"/><path d="m34.2 26.8v-4.7c0-.4.2-.6.3-.8s.4-.2.7-.2.6.1.7.3c.2.2.3.4.3.7v9.6c0 .7-.1 1.2-.4 1.5s-.7.6-1.2.7c-.5.2-1 .2-1.5 0s-.9-.4-1.2-.8-.5-.9-.4-1.5v-1.1c0-.3.1-.5.3-.6s.4-.1.7-.1.6.1.7.2.2.3.3.5v.6c0 .3 0 .4.1.5s.2.1.3.1.2 0 .2-.1c.1-.1.1-.3.1-.5v-2.4c-.3.1-.7.2-1 .2s-.6-.1-.9-.3c-.3-.1-.5-.3-.6-.6s-.2-.6-.2-1.2v-4.6c0-.4.2-.7.3-.8.2-.1.4-.2.6-.2.3 0 .5.1.7.2.2.2.3.4.3.7v4.1c0 .3.1.5.2.6.2.2.3.1.6 0z"/><path d="m34.2 19.7h-1.8c-.3 0-.6-.3-.6-.6v-1.8c0-.3.3-.6.6-.6h1.8c.3 0 .6.3.6.6v1.8c0 .3-.2.6-.6.6z"/><path d="m39.7 2.3v35.8h-37.3v-35.8h31.8v3.7h-1.7v-2.1h-28.5v32.6h34v-34.2z"/></g></svg>