<svg id="Layer_1" data-name="Layer 1" xmlns="http://www.w3.org/2000/svg" width="1.4in" height="1.4in" viewBox="0 0 100 100"><title>social-media-01</title><path d="M64.3,23.2H35.7A12.5,12.5,0,0,0,23.2,35.7V64.3A12.5,12.5,0,0,0,35.7,76.8H64.3A12.5,12.5,0,0,0,76.8,64.3V35.7A12.5,12.5,0,0,0,64.3,23.2ZM50,66.7A16.7,16.7,0,1,1,66.7,50,16.7,16.7,0,0,1,50,66.7ZM67.5,36.5a4,4,0,0,1-4-4.1,4,4,0,0,1,7.9.2A4,4,0,0,1,67.5,36.5Z" fill="#898989"/><path d="M100,0H0V100H100ZM82.7,64.3A18.4,18.4,0,0,1,64.3,82.7H35.7A18.4,18.4,0,0,1,17.3,64.3V35.7A18.4,18.4,0,0,1,35.7,17.3H64.3A18.4,18.4,0,0,1,82.7,35.7Z" fill="#898989"/><circle cx="50" cy="50" r="10.8" transform="translate(-20.7 50) rotate(-45)" fill="#898989"/></svg>