<svg id="Layer_1" data-name="Layer 1" xmlns="http://www.w3.org/2000/svg" width="1.4in" height="1.4in" viewBox="0 0 100 100"><title>social-media-02</title><path d="M0,0V100H100V0ZM85.3,34.1A107,107,0,0,1,76.8,53a96.5,96.5,0,0,1-9.2,13.7,65.9,65.9,0,0,1-9.1,9.2,26.6,26.6,0,0,1-9.4,5.3,9.9,9.9,0,0,1-5.1.3,8.6,8.6,0,0,1-5.3-4A29.8,29.8,0,0,1,34.6,68c-1.4-5-2.6-10.2-4-15.2s-2.3-7.4-3.5-11A7,7,0,0,0,26,39.7c-1.1-1.7-2.5-2.1-4.7-1.5l-4.4,1a2.2,2.2,0,0,1-2.2-1.1l-1.3-1.7a.9.9,0,0,1,.1-1c4.5-3.8,9-7.6,13.7-11.4a16.3,16.3,0,0,1,6.4-3.3c3.8-1,6.1-.2,8.2,2.9a18.2,18.2,0,0,1,2.8,7.1c.7,3.3,1.2,6.6,1.7,9.9s.6,5.8,1.1,8.6,1.2,5.5,3.1,7.7a10.6,10.6,0,0,0,2.3,1.9,3.6,3.6,0,0,0,4.4-1.1,22.7,22.7,0,0,0,2.9-4q1.9-3.6,3.6-7.5a11.8,11.8,0,0,0,.8-6.7c-.4-3-2-4.4-5.1-4.5H55.3c.7-1.4,1.2-2.7,1.8-4a26,26,0,0,1,13-11.5,16,16,0,0,1,11.6-.3,7.3,7.3,0,0,1,5,6.7A25.2,25.2,0,0,1,85.3,34.1Z" fill="#898989"/></svg>