<svg xmlns="http://www.w3.org/2000/svg" width="250" height="250" viewBox="0 0 250 250"><path fill="#197bad" d="M0 0h250v250H0z"/><path fill="#231f20" d="M116 183.8h-1.5L113 194h4.4zm0 0h-1.5L113 194h4.4zm-9.9-150.3a91.1 91.1 0 0 0-26.4 10.6v174.6h90.6V44.2c-20.4-12.1-41.9-15.7-64.2-10.7zM86.5 51.7a73.4 73.4 0 0 1 22.5-9.6c18.9-4.6 37.3-1.3 54.6 9.7v22.7l-3.9-3.9-8.1 3.8-4.5-8.5-20.3-12.1-6 13.2-9.5 6.1-7-5.6-17.5 10.8zm15.8 137.2v5.1H92v15.4h-5.1v-30.8h15.4v5.1H92v5.2zm0-35.9v5.1H92v15.4h-5.1v-30.7h15.4v5.1H92v5.1zm16.7 56.4l-1.3-10.3h-5.2l-1.3 10.3h-5.1l5.5-30.8h7.4l5.1 30.8zm-11.6-61.5v-5.1h15.4v5.1h-5.1v20.5h5.1v5.1h-15.4v-5.1h5.2v-20.5zm35.9 35.8h-5.1s-5.1-.2-5.1 5.1v10.3s.1 5.1 5.1 5.1h5.1v5.1h-5.1s-10.3 0-10.3-10.2v-10.2s-.5-10.6 10.3-10.2h5.1zm0-30.7a5.1 5.1 0 0 1-5.1 5.1l5.1 15.4h-5.1l-5.1-15.4v15.4h-5.2v-30.7h5.2c4.3 0 10.1.1 10.2 5.1 0 1.1.1 3.9 0 5.1zm.3-46.8l-5.7 10.6h3.4l-5.4 6.8-6.1-10.2-2.5 3.5-.6.9-3.6 5.1h3.7l-6 7.8-4.4-5.7h2.7l-5.6-8.2h3l-3.3-5.6-.4-.9-2.9-4.8-7.1 10.5-4.3-9.1h3.6l-3.2-4.9-.5-.8-4.3-6.5-.5-.8-1.4-2.1-3.9 9-1.2 3-.3-21.8h.7l16.6-10.2 7 5.6 12.4-8 4.9-10.5 16.1 9.5 5.6 10.6 8.9-4.2 4.6 4.7v7.4l-1.1 2.2-.4.9-4.2 8.4-.4.8-.3.6h4.5l-5.2 7.6-.5.7-2.5 3.7h4.3l-5.9 11.7-6.4-6.7h3.5zm20.3 77.5h-10.3v5.2h10.3v5.1h-10.3v10.3h10.3v5.1h-15.4v-30.8h15.4zm0-35.8h-10.3v5.1h10.3v5.1h-10.3v10.3h10.3v5.1h-15.4v-30.7h15.4zm-49.4 35.9L113 194h4.4l-1.4-10.2z"/><path fill="#fff" d="M116 183.8h-1.5L113 194h4.4zm0 0h-1.5L113 194h4.4zm-9.9-150.3a91.1 91.1 0 0 0-26.4 10.6v174.6h90.6V44.2c-20.4-12.1-41.9-15.7-64.2-10.7zM86.5 51.7a73.4 73.4 0 0 1 22.5-9.6c18.9-4.6 37.3-1.3 54.6 9.7v22.7l-3.9-3.9-8.1 3.8-4.5-8.5-20.3-12.1-6 13.2-9.5 6.1-7-5.6-17.5 10.8zm15.8 137.2v5.1H92v15.4h-5.1v-30.8h15.4v5.1H92v5.2zm0-35.9v5.1H92v15.4h-5.1v-30.7h15.4v5.1H92v5.1zm16.7 56.4l-1.3-10.3h-5.2l-1.3 10.3h-5.1l5.5-30.8h7.4l5.1 30.8zm-11.6-61.5v-5.1h15.4v5.1h-5.1v20.5h5.1v5.1h-15.4v-5.1h5.2v-20.5zm35.9 35.8h-5.1s-5.1-.2-5.1 5.1v10.3s.1 5.1 5.1 5.1h5.1v5.1h-5.1s-10.3 0-10.3-10.2v-10.2s-.5-10.6 10.3-10.2h5.1zm0-30.7a5.1 5.1 0 0 1-5.1 5.1l5.1 15.4h-5.1l-5.1-15.4v15.4h-5.2v-30.7h5.2c4.3 0 10.1.1 10.2 5.1 0 1.1.1 3.9 0 5.1zm.3-46.8l-5.7 10.6h3.4l-5.4 6.8-6.1-10.2-2.5 3.5-.6.9-3.6 5.1h3.7l-6 7.8-4.4-5.7h2.7l-5.6-8.2h3l-3.3-5.6-.4-.9-2.9-4.8-7.1 10.5-4.3-9.1h3.6l-3.2-4.9-.5-.8-4.3-6.5-.5-.8-1.4-2.1-3.9 9-1.2 3-.3-21.8h.7l16.6-10.2 7 5.6 12.4-8 4.9-10.5 16.1 9.5 5.6 10.6 8.9-4.2 4.6 4.7v7.4l-1.1 2.2-.4.9-4.2 8.4-.4.8-.3.6h4.5l-5.2 7.6-.5.7-2.5 3.7h4.3l-5.9 11.7-6.4-6.7h3.5zm20.3 77.5h-10.3v5.2h10.3v5.1h-10.3v10.3h10.3v5.1h-15.4v-30.8h15.4zm0-35.8h-10.3v5.1h10.3v5.1h-10.3v10.3h10.3v5.1h-15.4v-30.7h15.4zm-49.4 35.9L113 194h4.4l-1.4-10.2z"/><path fill="#fff" d="M138.2 149.3v2.2a1.5 1.5 0 0 1-1.5 1.5h-3.6v-5.1h3.6a1.5 1.5 0 0 1 1.5 1.4zM117.4 194H113l1.5-10.2h1.5l1.4 10.2zm46.2-119.5v5l-4.6-4.7-8.9 4.2-5.6-10.6-16.1-9.5-4.9 10.5-12.4 8-7-5.6L87.5 82h-.7v-3.7l17.5-10.8 7 5.6 9.5-6.1 6-13.2 20.3 12.1 4.5 8.5 8.1-3.8 3.9 3.9z"/></svg>