<svg xmlns="http://www.w3.org/2000/svg" width="250" height="250" viewBox="0 0 250 250"><path fill="#daa900" d="M0 0h250v250H0z"/><path fill="#2d2926" d="M98 134a40.7 40.7 0 0 1-24.5 2.9c4.1-23-9.1-27.8-9.1-27.8-4.6 15.7 4.4 24.8 7.8 27.6a50.2 50.2 0 0 1-15.6-5.9c-.2-22.3-13.5-24.7-13.5-24.7-2.4 18.6 11.7 25.8 13.3 26.5a58.9 58.9 0 0 0 10 4.2c-21.9 1.5-23.6 14.8-23.6 14.8 17.4 1.4 24.2-11 25.6-14.1h.6a49.2 49.2 0 0 0 11.8 1.7c-20.4 9.2-17.3 22.4-17.3 22.4 16.9-5 18.7-19.2 18.9-22.5a39 39 0 0 0 16.3-3.8zm-24.5 2.9v.3l-.5-.4zm8.6 2.4a.1.1 0 0 1 .1-.1h-.1z"/><path fill="#daa900" d="M73.5 136.9v.3l-.5-.4zm8.7 2.3h-.1a.1.1 0 0 1 .1 0z"/><path fill="#2d2926" d="M212.5 151.6s-16.7 1.5-24.1-16a38.6 38.6 0 0 0-17.1-3.5c4.1 1.2 12.8 6 14.8 24.2 0 0-16.5-4.6-16.8-24.1a51.4 51.4 0 0 0-22 6.7l-.9-1.4a52.3 52.3 0 0 1 13.4-5.4l1.7-.5c-.3-2.2-1.1-14.3 19-22.7a24.6 24.6 0 0 1-16.3 22.2 45.9 45.9 0 0 1 16.1.1c.5-2.7 3.7-13.9 24.7-16a24.8 24.8 0 0 1-22.4 16.6 33.9 33.9 0 0 1 6.9 2.5c3.8-.5 14.2.1 23 17.3z"/><circle cx="105.5" cy="148.2" r="2.9" fill="#fff" stroke="#fff" stroke-miterlimit="10" stroke-width=".42"/><circle cx="114.4" cy="153.9" r="2.9" fill="#fff" stroke="#fff" stroke-miterlimit="10" stroke-width=".42" transform="rotate(-78.7 114.461 153.917)"/><circle cx="122.4" cy="137.1" r="2.9" fill="#fff" stroke="#fff" stroke-miterlimit="10" stroke-width=".42"/><circle cx="122.6" cy="159.6" r="2.9" fill="#fff" stroke="#fff" stroke-miterlimit="10" stroke-width=".42" transform="rotate(-73.9 122.731 159.658)"/><circle cx="131.8" cy="143.3" r="2.9" fill="#fff" stroke="#fff" stroke-miterlimit="10" stroke-width=".42"/><circle cx="140.6" cy="149" r="2.9" fill="#fff" stroke="#fff" stroke-miterlimit="10" stroke-width=".42" transform="rotate(-73.9 140.713 149.036)"/><path fill="#fff" stroke="#fff" stroke-miterlimit="10" stroke-width=".42" d="M123 127.9l-31.3 20.4 31.3 20.5 31.2-20.5zm-29.8 20.4l29.8-19.4 29.7 19.4-29.7 19.5z"/><circle cx="130.3" cy="105.3" r="2.9" fill="#fff" stroke="#fff" stroke-miterlimit="10" stroke-width=".42"/><circle cx="146.7" cy="134.8" r="2.9" fill="#fff" stroke="#fff" stroke-miterlimit="10" stroke-width=".42"/><path fill="#fff" stroke="#fff" stroke-miterlimit="10" stroke-width=".42" d="M123 92.4v35.5l31.2 20.4v-35.4zm30.4 54.4l-29.6-19.3V94l29.6 19.4z"/><circle cx="96.9" cy="116.4" r="2.9" fill="#fff" stroke="#fff" stroke-miterlimit="10" stroke-width=".42" transform="rotate(-79.5 96.805 116.312)"/><circle cx="98.2" cy="134.8" r="2.9" fill="#fff" stroke="#fff" stroke-miterlimit="10" stroke-width=".42"/><path fill="#fff" stroke="#fff" stroke-miterlimit="10" stroke-width=".42" d="M103.3 120.3a2.9 2.9 0 1 1 2.9 2.9 2.9 2.9 0 0 1-2.9-2.9z"/><circle cx="114.1" cy="105.3" r="2.9" fill="#fff" stroke="#fff" stroke-miterlimit="10" stroke-width=".42"/><circle cx="116.1" cy="123.7" r="2.9" fill="#fff" stroke="#fff" stroke-miterlimit="10" stroke-width=".42"/><path fill="#fff" stroke="#fff" stroke-miterlimit="10" stroke-width=".42" d="M91.7 112.9v35.4l31.3-20.4V92.4zm30.4 14.6l-29.5 19.3v-33.4L122.1 94zm.9 1.4l-29.8 19.4 29.8 19.5 29.7-19.5zM105.5 151a2.8 2.8 0 0 1-2.8-2.8 2.9 2.9 0 1 1 5.7 0 2.8 2.8 0 0 1-2.9 2.8zm8.9 5.7a2.9 2.9 0 1 1 2.9-2.8 2.9 2.9 0 0 1-2.9 2.8zm8-22.5a2.9 2.9 0 0 1 2.9 2.9 2.9 2.9 0 0 1-5.8 0 2.9 2.9 0 0 1 2.9-2.9zm.2 28.3a2.9 2.9 0 1 1 2.9-2.9 2.9 2.9 0 0 1-2.9 2.9zm9.2-16.3a2.9 2.9 0 0 1 0-5.8 2.9 2.9 0 0 1 0 5.8zm8.8 5.7a2.9 2.9 0 0 1-2.9-2.9 2.8 2.8 0 0 1 2.9-2.8 2.7 2.7 0 0 1 2.8 2.8 2.8 2.8 0 0 1-2.8 2.9zM123.8 94v33.5l29.6 19.3v-33.4zm6.5 14.2a2.8 2.8 0 0 1-2.8-2.9 2.7 2.7 0 0 1 2.8-2.8 2.8 2.8 0 0 1 2.9 2.8 2.9 2.9 0 0 1-2.9 2.9zm16.4 29.5a2.9 2.9 0 1 1 2.9-2.9 2.9 2.9 0 0 1-2.9 2.9z"/><path fill="#fff" stroke="#fff" stroke-miterlimit="10" stroke-width=".42" d="M92.6 113.4v33.4l29.5-19.3V94zm1.4 3a2.9 2.9 0 1 1 2.9 2.8 2.9 2.9 0 0 1-2.9-2.8zm4.2 21.3a2.9 2.9 0 1 1 2.8-2.9 2.9 2.9 0 0 1-2.8 2.9zm8-14.5a2.9 2.9 0 1 1 2.9-2.9 2.9 2.9 0 0 1-2.9 2.9zm5-17.9a2.9 2.9 0 0 1 5.8 0 2.9 2.9 0 0 1-5.8 0zm4.9 21.3a2.9 2.9 0 1 1 2.9-2.9 2.9 2.9 0 0 1-2.9 2.9z"/><path fill="#2d2926" stroke="#2d2926" stroke-miterlimit="10" stroke-width=".42" d="M123 72.5v-5m0 5.8a.8.8 0 0 1-.9-.8v-5a.9.9 0 0 1 .9-.9.9.9 0 0 1 .8.9v5a.8.8 0 0 1-.8.8zm-14.4 1.1l-1.3-4.9m1.3 5.7a.8.8 0 0 1-.8-.6l-1.3-4.9a.8.8 0 1 1 1.6-.4l1.3 4.9a.8.8 0 0 1-.6 1zm-13.3 4.7l-2.6-4.3m2.6 5.1a.7.7 0 0 1-.7-.4L92 76a1 1 0 0 1 .3-1.2 1.1 1.1 0 0 1 1.2.3l2.5 4.4a.8.8 0 0 1-.3 1.1zm-11.5 8l-3.6-3.5m3.6 4.3a.7.7 0 0 1-.6-.2l-3.6-3.6a.8.8 0 0 1 0-1.1.9.9 0 0 1 1.2 0l3.6 3.6a.8.8 0 0 1 0 1.1.7.7 0 0 1-.6.2zM75 100.2l-4.4-2.5M75 101h-.4l-4.4-2.5a.8.8 0 0 1-.3-1.1.7.7 0 0 1 1.1-.4l4.4 2.5a.8.8 0 0 1 .3 1.1.8.8 0 0 1-.7.4zm8.8 66.1l-3.6 3.5m0 .9a.9.9 0 0 1-.6-.3.8.8 0 0 1 0-1.1l3.6-3.6a.9.9 0 0 1 1.2 0 .8.8 0 0 1 0 1.1l-3.6 3.6a.9.9 0 0 1-.6.3zm15.1 4.4l-2.6 4.3m0 .9h-.4a1 1 0 0 1-.3-1.2l2.6-4.3a.7.7 0 0 1 1.1-.3.8.8 0 0 1 .3 1.1l-2.5 4.4a1.2 1.2 0 0 1-.8.3zm15.9.3l-1.3 4.9m0 .8h-.2a.9.9 0 0 1-.6-1l1.3-4.9a1 1 0 0 1 1-.6.8.8 0 0 1 .6 1l-1.3 4.9a.8.8 0 0 1-.8.6zm30-5.7l1.3 4.9m0 .8a.8.8 0 0 1-.8-.6l-1.3-4.9a.8.8 0 1 1 1.6-.4l1.3 4.9a.8.8 0 0 1-.6 1zm12.1-11.2l2.5 4.3m0 .9a.8.8 0 0 1-.7-.4l-2.5-4.4a.7.7 0 0 1 .3-1.1c.3-.3.8-.1 1.1.3l2.5 4.3a1 1 0 0 1-.3 1.2zm8.9-14l3.6 3.5m0 .9l-.6-.3-3.5-3.6a.7.7 0 0 1 0-1.1.8.8 0 0 1 1.1 0l3.6 3.6a.8.8 0 0 1 0 1.1.9.9 0 0 1-.6.3zm5.2-15.9l4.4 2.5m0 .8h-.4l-4.4-2.5a.8.8 0 0 1-.3-1.1 1 1 0 0 1 1.2-.3l4.3 2.5a.8.8 0 0 1 .3 1.1.7.7 0 0 1-.7.3zm-4.4-58.7l4.4-2.5m-4.4 3.3a.9.9 0 0 1-.7-.4.8.8 0 0 1 .3-1.1l4.4-2.5a.7.7 0 0 1 1.1.3.8.8 0 0 1-.3 1.1l-4.3 2.5zm-8.8-11.5c-.2 0-.4 0-.5-.2a.7.7 0 0 1 0-1.1l3.5-3.6a.9.9 0 0 1 1.2 0 .8.8 0 0 1 0 1.1l-3.6 3.6c-.1.2-.4.2-.6.2zm-11.4-9.6l2.5-4.3m-2.5 5.1h-.4a.7.7 0 0 1-.3-1.1l2.5-4.4a.9.9 0 0 1 1.1-.3 1 1 0 0 1 .3 1.2l-2.5 4.3a.9.9 0 0 1-.7.3zm-13.4-6.3l1.3-4.9m-1.3 5.7h-.2a.9.9 0 0 1-.6-1l1.3-4.9a.9.9 0 0 1 1-.6.8.8 0 0 1 .6 1l-1.3 4.9a.8.8 0 0 1-.8.6z"/><circle cx="105.5" cy="148.2" r="2.9" fill="#2d2926" stroke="#2d2926" stroke-miterlimit="10" stroke-width=".42"/><circle cx="114.4" cy="153.9" r="2.9" fill="#2d2926" stroke="#2d2926" stroke-miterlimit="10" stroke-width=".42" transform="rotate(-78.7 114.461 153.917)"/><circle cx="122.6" cy="159.6" r="2.9" fill="#2d2926" stroke="#2d2926" stroke-miterlimit="10" stroke-width=".42" transform="rotate(-73.9 122.731 159.658)"/><circle cx="122.4" cy="137.1" r="2.9" fill="#2d2926" stroke="#2d2926" stroke-miterlimit="10" stroke-width=".42"/><circle cx="131.8" cy="143.3" r="2.9" fill="#2d2926" stroke="#2d2926" stroke-miterlimit="10" stroke-width=".42"/><circle cx="140.6" cy="149" r="2.9" fill="#2d2926" stroke="#2d2926" stroke-miterlimit="10" stroke-width=".42" transform="rotate(-73.9 140.713 149.036)"/><path fill="#daa900" d="M73.5 136.9v.3l-.5-.4z"/><path fill="#daa900" d="M73.5 136.9v.3l-.5-.4zm8.7 2.3h-.1a.1.1 0 0 1 .1 0z"/><path fill="#daa900" d="M82.2 139.2h-.1a.1.1 0 0 1 .1 0z"/><circle cx="96.9" cy="116.4" r="2.9" fill="#2d2926" stroke="#2d2926" stroke-miterlimit="10" stroke-width=".42"/><circle cx="114.1" cy="105.3" r="2.9" fill="#2d2926" stroke="#2d2926" stroke-miterlimit="10" stroke-width=".42"/><circle cx="116.1" cy="123.7" r="2.9" fill="#2d2926" stroke="#2d2926" stroke-miterlimit="10" stroke-width=".42"/><circle cx="98.2" cy="134.8" r="2.9" fill="#2d2926" stroke="#2d2926" stroke-miterlimit="10" stroke-width=".42"/><circle cx="130.3" cy="105.3" r="2.9" fill="#2d2926" stroke="#2d2926" stroke-miterlimit="10" stroke-width=".42"/><path fill="#2d2926" stroke="#2d2926" stroke-miterlimit="10" stroke-width=".42" d="M109.1 120.3a2.9 2.9 0 1 1-2.9-2.8 2.9 2.9 0 0 1 2.9 2.8z"/><circle cx="146.7" cy="134.8" r="2.9" fill="#2d2926" stroke="#2d2926" stroke-miterlimit="10" stroke-width=".42"/><path fill="#2d2926" stroke="#2d2926" stroke-linecap="round" stroke-linejoin="round" stroke-width=".42" d="M154.6 112.2l-31.2-20.4h-.1c-.1 0-.1 0-.1-.1h-.7l-31.2 20.5a1 1 0 0 0-.4.7v35.4a.4.4 0 0 0 .1.3.1.1 0 0 0 .1.1h.2l31.2 20.5h.9l31.2-20.2h.3a.4.4 0 0 0 .1-.3v-35.8a.8.8 0 0 0-.4-.7zM123 167.8l-29.8-19.5 29.8-19.4 29.7 19.4zm-30.4-54.4L122.1 94v33.5l-29.5 19.3zm60.8 33.4l-29.6-19.3V94l29.6 19.4z"/></svg>