<svg xmlns="http://www.w3.org/2000/svg" width="250" height="250" viewBox="0 0 250 250"><path fill="#cddb8f" d="M0 0h250v250H0z"/><path fill="#ec8136" d="M38.6 142.6s11.3.7 22.2-10.2 21.4-4.9 25.3-1 14.3 7.8 18.2 3.9v4.4s-6.8 22.6-22.7 14.1c-3.3-1.8-6.8-5.9-14.6-1.2s-23.2 1.1-28.4-10z"/><path fill="#efefef" d="M37.6 142.5s10.3 1 23.8-10.9l-2.7 7.8h3.1a.5.5 0 0 1 .4.8l-2.1 3.6 4 2.1c.3.2.4.6.1.8l-2.5 2.6 5.3 3.6S48.7 163 37.6 142.5z"/><path fill="#9b7663" d="M106.9 139s7.4 20.7-1.6 53.2l8.6-.5s14-30.8 15-52.4z"/><path fill="#2c2c2c" d="M105.1 192.1l-.6 7 6.1.8.4-1.8 1.3 2.3s12.8 4.4 19.9-1.2a.5.5 0 0 0 .1-.8c-1-1-4.7-3.6-17.9-6.8z"/><path fill="none" stroke="#59787d" stroke-linecap="round" stroke-linejoin="round" d="M114.4 195.2l2-3.1m-.2 3.5l2-3.1m-.2 3.6l1.9-3.1"/><path fill="#9b7663" d="M141 191.6h9.3s7.2-37.8 1.9-52.5h-16.9s6.9 16.2 5.7 52.5z"/><path fill="#2c2c2c" d="M141 192l-1 6a.6.6 0 0 0 .5.6l5 1c.3.1.5-.1.6-.4a.6.6 0 0 1 1-.1l.5 1c0 .2.2.2.3.3 1.6.6 12.9 4.6 19.8-.1a.6.6 0 0 0 .1-.8c-1-1.1-4.5-3.8-17.5-7.8h-8.8a.5.5 0 0 0-.5.3z"/><path fill="none" stroke="#59787d" stroke-linecap="round" stroke-linejoin="round" d="M149.3 195l2.1-3m-.3 3.5l2.1-2.9m-.4 3.5l2.1-2.9"/><path fill="#006e89" stroke="#59787d" stroke-linecap="round" stroke-linejoin="round" d="M137.6 103.3s-8.5-6.5-4.4-13.7 9.9-1.3 12.3 1.1 12 14.6 12 14.6l20.8 2.4a1.5 1.5 0 0 1 1.4 1.8l-2.1 11.4a1.6 1.6 0 0 1-1.9 1.3l-19.6-4s-6.8-.8-10.6-5.7a78.9 78.9 0 0 0-7.9-9.2z"/><path fill="#212121" d="M178.2 119.7l2-10.1 8 .6.9.2c4.3 1.5 3.4 5.1 2.6 6.9a2.9 2.9 0 0 1-1.8 1.8 19.3 19.3 0 0 1-11.7.6z"/><path fill="#ec8136" d="M180.2 109.6l-2 10.1 2.6.5a.3.3 0 0 0 .3-.3l-.6-2.5 2.2-1.2c.1-.1.1-.2 0-.4l-2.1-2.2 1.8-2.5a.2.2 0 0 0 0-.3l-1.1-1.1z"/><path fill="#006e89" stroke="#59787d" stroke-miterlimit="10" d="M107 149.4c6.7 1.1 27.8 3.6 47.6-3.3a2.9 2.9 0 0 0 2-3L152.2 84l-36.6 2.8s-13.2 38.1-11.1 60a3 3 0 0 0 2.5 2.6z"/><path fill="#006e89" stroke="#59787d" stroke-miterlimit="10" d="M117.9 124.8l16.5 1.5c.3 0 .4.2.4.5l-1.3 10.5a6.3 6.3 0 0 1-2.9 4.5h-.3a9.3 9.3 0 0 1-10-.1 6 6 0 0 1-2.9-5.1v-11.4a.5.5 0 0 1 .5-.4zm32.6 1.7h4.9l1.1 15.1-2.3-.7a5 5 0 0 1-3.5-4.4l-.6-9.5a.5.5 0 0 1 .4-.5z"/><path fill="none" stroke="#59787d" stroke-miterlimit="10" d="M141.8 84.8s7.9 47 2.6 64.1"/><circle cx="139.4" cy="98.5" r="1.9" fill="#9b7663"/><circle cx="141.3" cy="112.2" r="1.9" fill="#9b7663"/><circle cx="141.8" cy="126" r="1.9" fill="#9b7663"/><circle cx="140.4" cy="139.7" r="1.9" fill="#9b7663"/><path fill="#006e89" stroke="#59787d" stroke-linecap="round" stroke-linejoin="round" d="M115.6 86.8s9.4 8.2 21 9.7a1 1 0 0 0 1.1-.8c.5-1.7 1.9-5.5 4.7-7l-.6-3.9z"/><path fill="#006e89" stroke="#59787d" stroke-miterlimit="10" d="M141.8 84.8l.6 3.9s4.7 1.5 5.4 5.1a.5.5 0 0 0 .9.3l4-3.3-.5-6.8z"/><path fill="#424242" d="M179.9 209.2l-3.5.3-8.1-85.1a.4.4 0 0 0-.4-.4h-1.5l-1.2.2-1.5-.3a2.4 2.4 0 0 1 .2-4.1s7.1-3.2 7.7 2.6z"/><path fill="#006e89" stroke="#59787d" stroke-linecap="round" stroke-linejoin="round" d="M121 107.3s-8.5-6.6-4.5-13.7 9.9-1.4 12.4 1.1 12 14.6 12 14.6l20.8 2.3a1.6 1.6 0 0 1 1.4 1.9l-2.1 11.4a1.6 1.6 0 0 1-1.9 1.3l-19.7-4s-6.7-.8-10.5-5.8a82.2 82.2 0 0 0-7.9-9.1z"/><path fill="#212121" d="M162.2 120.3s3.7-1.3 5.1.2a2.4 2.4 0 0 1-1 3.1c-1.8 1.1.9 2.9 2 1.8l6.2-2.9s4.1-6.4-2.5-8.3l-8.5-.6z"/><path fill="#ec8136" d="M164.7 119.2l-.8-1.7 2.2-.5c.3-.1.4-.4.1-.6l-.8-.7 1.5-1.6c.1-.1.1-.3-.1-.3l-3.3-.2-1.3 6.7 2.1-.4c.3 0 .5-.4.4-.7z"/><path fill="#39543d" d="M88.817 116.9l.636.772-7.33 6.043a.5.5 0 0 1-.704-.068.5.5 0 0 1 .067-.703l7.33-6.043zm.978 1.527l.637.771-7.33 6.043a.5.5 0 0 1-.705-.068.5.5 0 0 1 .068-.704l7.33-6.042z"/><path fill="#39543d" d="M81.6 107.9a53.1 53.1 0 0 1 18-10.1c11-3.6 15.6-11 15.6-11l9.1 1.5s-3.5 18.3-22 24.3c0 0-8.7 1.5-11.8 6.8z"/><path fill="#39543d" d="M81.559 107.857l.636.771-7.408 6.107a.5.5 0 0 1-.704-.068.5.5 0 0 1 .068-.704l7.33-6.043.078-.063zm.956 1.362l.636.772-7.33 6.042a.5.5 0 0 1-.705-.067.5.5 0 0 1 .068-.704l7.33-6.043zm1.736 1.759l.64.77-7.315 6.08a.5.5 0 0 1-.705-.065.5.5 0 0 1 .065-.705l7.315-6.08zm.799 1.365l.635.771-7.33 6.043a.5.5 0 0 1-.704-.068.5.5 0 0 1 .068-.704l7.33-6.042zm1.128 1.543l.636.772-7.33 6.043a.5.5 0 0 1-.704-.068.5.5 0 0 1 .067-.704l7.33-6.043zm1.182 1.417l.637.771-7.33 6.043a.5.5 0 0 1-.704-.068.5.5 0 0 1 .067-.703l7.33-6.043z"/><path fill="#efefef" d="M104.8 74.8c2.8-1.8 15.1-8.9 38.1-7.5H153V70s-29.3 6.9-40.2 16.7a.3.3 0 0 1-.5-.3l1.2-3.5-3.9 1.7c-.2.1-.5-.1-.4-.3l1.3-5.3-4.1 1.2c-.3.1-.5-.2-.3-.5l3.1-3.8-4.3-.6c-.2 0-.3-.3-.1-.5z"/><path fill="#ec8136" d="M102.9 52.1c.2 2.4 1.6 15 6.4 17.2 0 0-3.7 2.3-4.5 5.5.3.3 8.9-8.7 38.1-7.5H153l4.4-1.2a.1.1 0 1 0 0-.3c-1.5-.8-6.7-3.6-9.1-7.6 0 0-12.6 7.6-25.7 4.4 0 0-3.6-7.9-11.1-10.9h-.2v2a11 11 0 0 0-8-2.2c-.3.1-.4.3-.4.6zm28.3-3.1a53.5 53.5 0 0 1 14.6 1.8l-1.2-4.4h-1.7l-3.1-5.7h-.4c-1.2.4-6.8 3.5-8.2 8.3z"/><path fill="#424242" stroke="#424242" stroke-miterlimit="10" d="M116.2 54.5s2.1-5.8 15-5.8 14.6 1.8 14.6 1.8 1.5.7 1.5 1.5-7.1 9.1-24.7 10.6c0 0-2.8-5.3-6.4-8.1z"/><path fill="#424242" stroke="#424242" stroke-linecap="round" stroke-linejoin="round" d="M147.3 52s3.9-2 5 1-4 5.2-4 5.2-13.4 7.8-25.7 4.4c0 0 17.6-1.1 24.7-10.6z"/><path fill="#efefef" d="M112.2 67.9s7.4-1 7.6-5.3l-5.3-4.6 1.1 3.6-8.5-5.4c0-.1-.1 0 0 0l4.7 8.1-3.1-.9s-.1.1 0 .1a17 17 0 0 0 3.5 4.4z"/><path fill="#2c2c2c" d="M153 70a3.9 3.9 0 0 0 4.9-.8s.9-.7-.4-3.2l-4.5 1.3z"/><circle cx="125.1" cy="72.6" r="1.2" fill="#006e89"/><path fill="#39543d" d="M115.4 84.6l-.2 2.2s21.1 6 37.5-2.9c0 0 4.3-9.5 0-13.8l-2.3.6c-10.6 2.6-26.5 7.3-35 13.9z"/></svg>